<svg xmlns="http://www.w3.org/2000/svg" viewBox="0 0 512 512" role="img" aria-label="별빛의 운명">
  <rect width="512" height="512" rx="116" fill="#fdf9f2"/>
  <rect x="31" y="31" width="450" height="450" rx="112" fill="none" stroke="#b27d45" stroke-width="4"/>
  <ellipse cx="256" cy="256" rx="154" ry="102" fill="none" stroke="#b27d45" stroke-width="6"/>
  <ellipse cx="256" cy="256" rx="118" ry="159" fill="none" stroke="#c79963" stroke-width="4"/>
  <circle cx="256" cy="256" r="120" fill="#543f39" stroke="#7d5635" stroke-width="7"/>
  <circle cx="246" cy="261" r="74" fill="#faf1da"/>
  <circle cx="280" cy="243" r="67" fill="#543f39"/>
  <path d="M328 147 340 185 379 197 340 209 328 248 316 209 277 197 316 185Z" fill="#deae65"/>
  <path d="M178 316 184 337 205 343 184 349 178 370 172 349 151 343 172 337Z" fill="#e8c791"/>
  <circle cx="358" cy="312" r="6" fill="#e8c791"/>
  <circle cx="158" cy="189" r="5" fill="#e8c791"/>
  <circle cx="328" cy="357" r="4" fill="#e8c791"/>
</svg>
